# xmcd
#
# Track frame offsets:
# 187
# 14455
# 28172
# 41620
# 60607
# 75592
# 90230
# 105047
# 123065
# 138087
# 149045
#
# Disc length: 2141 seconds
#
#
# Revision: 8
# Processed by: cddbd v1.5.1PL2 Copyright (c) Steve Scherf et al.
# Submitted via: FreeRIP 2.944 
#
DISCID=80085b0b
DTITLE=Lyle Lovett - Pontiac
DYEAR=1987
DGENRE=Country
TTITLE0=If I Had A Boat
TTITLE1=Give Back My Heart
TTITLE2=I Loved You Yesterday
TTITLE3=Walk Through The Bottomland
TTITLE4=L.A. County
TTITLE5=She's No Lady
TTITLE6=M-O-N-E-Y
TTITLE7=Black And Blue
TTITLE8=Simple Song
TTITLE9=Pontiac
TTITLE10=She's Hot To Go
EXTD=
EXTT0=
EXTT1=
EXTT2=
EXTT3=
EXTT4=
EXTT5=
EXTT6=
EXTT7=
EXTT8=
EXTT9=
EXTT10=
PLAYORDER=
